<svg width="20" height="20" viewBox="0 0 20 20" fill="none" xmlns="http://www.w3.org/2000/svg">
<path d="M5.83334 9.16666V10.8333H14.1667V9.16666H5.83334ZM10 1.66666C5.40001 1.66666 1.66667 5.39999 1.66667 9.99999C1.66667 14.6 5.40001 18.3333 10 18.3333C14.6 18.3333 18.3333 14.6 18.3333 9.99999C18.3333 5.39999 14.6 1.66666 10 1.66666ZM10 16.6667C6.32501 16.6667 3.33334 13.675 3.33334 9.99999C3.33334 6.32499 6.32501 3.33332 10 3.33332C13.675 3.33332 16.6667 6.32499 16.6667 9.99999C16.6667 13.675 13.675 16.6667 10 16.6667Z" fill="black"/>
</svg>
